<mxfile host="app.diagrams.net" modified="2024-02-27T09:25:38.246Z" agent="Mozilla/5.0 (X11; Ubuntu; Linux x86_64; rv:122.0) Gecko/20100101 Firefox/122.0" etag="GAk8cgVkkxyFz5SJ-5Zo" version="23.0.2" type="github">
  <diagram name="Page-1" id="Ja1u6rrKjK_c4OcnhDjC">
    <mxGraphModel dx="2074" dy="1103" grid="1" gridSize="10" guides="1" tooltips="1" connect="1" arrows="1" fold="1" page="1" pageScale="1" pageWidth="1169" pageHeight="827" math="0" shadow="0">
      <root>
        <mxCell id="0" />
        <mxCell id="1" parent="0" />
        <mxCell id="Iun9FfVoCLrFuCCZVWFo-2" value="" style="rounded=0;whiteSpace=wrap;html=1;" vertex="1" parent="1">
          <mxGeometry x="85" y="80" width="640" height="680" as="geometry" />
        </mxCell>
        <mxCell id="Iun9FfVoCLrFuCCZVWFo-3" value="&lt;font style=&quot;font-size: 24px;&quot;&gt;Søk&lt;/font&gt;" style="text;html=1;strokeColor=#666666;fillColor=#f5f5f5;align=center;verticalAlign=middle;whiteSpace=wrap;rounded=0;strokeWidth=2;fontColor=#333333;" vertex="1" parent="1">
          <mxGeometry x="140" y="160" width="120" height="30" as="geometry" />
        </mxCell>
        <mxCell id="Iun9FfVoCLrFuCCZVWFo-4" value="&lt;font style=&quot;font-size: 15px;&quot;&gt;Skriv inn serienummer&lt;br&gt;&lt;/font&gt;" style="text;html=1;strokeColor=default;fillColor=none;align=center;verticalAlign=middle;whiteSpace=wrap;rounded=0;" vertex="1" parent="1">
          <mxGeometry x="270" y="160" width="270" height="30" as="geometry" />
        </mxCell>
        <mxCell id="Iun9FfVoCLrFuCCZVWFo-5" value="&lt;font style=&quot;font-size: 20px;&quot;&gt;Last opp fil&lt;br&gt;&lt;/font&gt;" style="text;html=1;strokeColor=#666666;fillColor=#f5f5f5;align=center;verticalAlign=middle;whiteSpace=wrap;rounded=0;strokeWidth=2;fontColor=#333333;" vertex="1" parent="1">
          <mxGeometry x="150" y="640" width="110" height="30" as="geometry" />
        </mxCell>
        <mxCell id="Iun9FfVoCLrFuCCZVWFo-6" value="Assets" style="childLayout=tableLayout;recursiveResize=0;strokeColor=#98bf21;fillColor=#A7C942;shadow=1;" vertex="1" parent="1">
          <mxGeometry x="140" y="280" width="520" height="65" as="geometry" />
        </mxCell>
        <mxCell id="Iun9FfVoCLrFuCCZVWFo-7" style="shape=tableRow;horizontal=0;startSize=0;swimlaneHead=0;swimlaneBody=0;top=0;left=0;bottom=0;right=0;dropTarget=0;collapsible=0;recursiveResize=0;expand=0;fontStyle=0;strokeColor=#6c8ebf;fillColor=#dae8fc;" vertex="1" parent="Iun9FfVoCLrFuCCZVWFo-6">
          <mxGeometry width="520" height="33" as="geometry" />
        </mxCell>
        <mxCell id="Iun9FfVoCLrFuCCZVWFo-8" value="Serienummer" style="connectable=0;recursiveResize=0;strokeColor=#6c8ebf;fillColor=#dae8fc;align=center;fontStyle=1;html=1;" vertex="1" parent="Iun9FfVoCLrFuCCZVWFo-7">
          <mxGeometry width="104" height="33" as="geometry">
            <mxRectangle width="104" height="33" as="alternateBounds" />
          </mxGeometry>
        </mxCell>
        <mxCell id="Iun9FfVoCLrFuCCZVWFo-9" value="Nummer 2" style="connectable=0;recursiveResize=0;strokeColor=#6c8ebf;fillColor=#dae8fc;align=center;fontStyle=1;html=1;" vertex="1" parent="Iun9FfVoCLrFuCCZVWFo-7">
          <mxGeometry x="104" width="105" height="33" as="geometry">
            <mxRectangle width="105" height="33" as="alternateBounds" />
          </mxGeometry>
        </mxCell>
        <mxCell id="Iun9FfVoCLrFuCCZVWFo-10" value="Nummer 3" style="connectable=0;recursiveResize=0;strokeColor=#6c8ebf;fillColor=#dae8fc;align=center;fontStyle=1;html=1;" vertex="1" parent="Iun9FfVoCLrFuCCZVWFo-7">
          <mxGeometry x="209" width="103" height="33" as="geometry">
            <mxRectangle width="103" height="33" as="alternateBounds" />
          </mxGeometry>
        </mxCell>
        <mxCell id="Iun9FfVoCLrFuCCZVWFo-27" value="Nummer 4" style="connectable=0;recursiveResize=0;strokeColor=#6c8ebf;fillColor=#dae8fc;align=center;fontStyle=1;html=1;" vertex="1" parent="Iun9FfVoCLrFuCCZVWFo-7">
          <mxGeometry x="312" width="104" height="33" as="geometry">
            <mxRectangle width="104" height="33" as="alternateBounds" />
          </mxGeometry>
        </mxCell>
        <mxCell id="Iun9FfVoCLrFuCCZVWFo-29" value="Nummer 5" style="connectable=0;recursiveResize=0;strokeColor=#6c8ebf;fillColor=#dae8fc;align=center;fontStyle=1;html=1;" vertex="1" parent="Iun9FfVoCLrFuCCZVWFo-7">
          <mxGeometry x="416" width="104" height="33" as="geometry">
            <mxRectangle width="104" height="33" as="alternateBounds" />
          </mxGeometry>
        </mxCell>
        <mxCell id="Iun9FfVoCLrFuCCZVWFo-11" value="" style="shape=tableRow;horizontal=0;startSize=0;swimlaneHead=0;swimlaneBody=0;top=0;left=0;bottom=0;right=0;dropTarget=0;collapsible=0;recursiveResize=0;expand=0;fontStyle=0;strokeColor=inherit;fillColor=#ffffff;" vertex="1" parent="Iun9FfVoCLrFuCCZVWFo-6">
          <mxGeometry y="33" width="520" height="32" as="geometry" />
        </mxCell>
        <mxCell id="Iun9FfVoCLrFuCCZVWFo-12" value="123456" style="connectable=0;recursiveResize=0;strokeColor=inherit;fillColor=inherit;align=center;whiteSpace=wrap;html=1;" vertex="1" parent="Iun9FfVoCLrFuCCZVWFo-11">
          <mxGeometry width="104" height="32" as="geometry">
            <mxRectangle width="104" height="32" as="alternateBounds" />
          </mxGeometry>
        </mxCell>
        <mxCell id="Iun9FfVoCLrFuCCZVWFo-13" value="123456" style="connectable=0;recursiveResize=0;strokeColor=inherit;fillColor=inherit;align=center;whiteSpace=wrap;html=1;" vertex="1" parent="Iun9FfVoCLrFuCCZVWFo-11">
          <mxGeometry x="104" width="105" height="32" as="geometry">
            <mxRectangle width="105" height="32" as="alternateBounds" />
          </mxGeometry>
        </mxCell>
        <mxCell id="Iun9FfVoCLrFuCCZVWFo-14" value="123456" style="connectable=0;recursiveResize=0;strokeColor=inherit;fillColor=inherit;align=center;whiteSpace=wrap;html=1;" vertex="1" parent="Iun9FfVoCLrFuCCZVWFo-11">
          <mxGeometry x="209" width="103" height="32" as="geometry">
            <mxRectangle width="103" height="32" as="alternateBounds" />
          </mxGeometry>
        </mxCell>
        <mxCell id="Iun9FfVoCLrFuCCZVWFo-28" value="123456" style="connectable=0;recursiveResize=0;strokeColor=inherit;fillColor=inherit;align=center;whiteSpace=wrap;html=1;" vertex="1" parent="Iun9FfVoCLrFuCCZVWFo-11">
          <mxGeometry x="312" width="104" height="32" as="geometry">
            <mxRectangle width="104" height="32" as="alternateBounds" />
          </mxGeometry>
        </mxCell>
        <mxCell id="Iun9FfVoCLrFuCCZVWFo-30" value="123456" style="connectable=0;recursiveResize=0;strokeColor=inherit;fillColor=inherit;align=center;whiteSpace=wrap;html=1;" vertex="1" parent="Iun9FfVoCLrFuCCZVWFo-11">
          <mxGeometry x="416" width="104" height="32" as="geometry">
            <mxRectangle width="104" height="32" as="alternateBounds" />
          </mxGeometry>
        </mxCell>
        <mxCell id="Iun9FfVoCLrFuCCZVWFo-31" value="&lt;font style=&quot;font-size: 15px;&quot;&gt;&lt;br&gt;&lt;/font&gt;" style="text;html=1;strokeColor=default;fillColor=none;align=center;verticalAlign=middle;whiteSpace=wrap;rounded=0;" vertex="1" parent="1">
          <mxGeometry x="270" y="640" width="270" height="30" as="geometry" />
        </mxCell>
        <mxCell id="Iun9FfVoCLrFuCCZVWFo-32" value="&lt;font style=&quot;font-size: 21px;&quot;&gt;Vis alle&lt;br&gt;&lt;/font&gt;" style="text;html=1;strokeColor=#666666;fillColor=#f5f5f5;align=center;verticalAlign=middle;whiteSpace=wrap;rounded=0;strokeWidth=2;fontColor=#333333;" vertex="1" parent="1">
          <mxGeometry x="550" y="160" width="120" height="30" as="geometry" />
        </mxCell>
        <mxCell id="Iun9FfVoCLrFuCCZVWFo-33" value="&lt;div&gt;&lt;span style=&quot;white-space: pre; font-size: 19px;&quot;&gt;&#x9;&lt;/span&gt;&lt;font size=&quot;1&quot;&gt;&lt;span style=&quot;white-space: pre;&quot;&gt;&lt;font style=&quot;font-size: 19px;&quot;&gt;&lt;u&gt;Punkter som må oppklares&lt;/u&gt;&lt;/font&gt;&lt;/span&gt;&lt;/font&gt;&lt;br&gt;&lt;/div&gt;&lt;ul style=&quot;font-size: 15px;&quot;&gt;&lt;li&gt;Hvordan brukes det?&lt;br&gt;&lt;/li&gt;&lt;li&gt;Kryptering&lt;/li&gt;&lt;li&gt;Lese-/skriverettigheter&lt;/li&gt;&lt;li&gt;Mulighet til å søke på andre nummere&lt;/li&gt;&lt;li&gt;Laste ned fil med hele databasen&lt;/li&gt;&lt;li&gt;Nettside vs Excel&lt;/li&gt;&lt;/ul&gt;" style="text;strokeColor=#6c8ebf;fillColor=#dae8fc;html=1;whiteSpace=wrap;verticalAlign=middle;overflow=hidden;" vertex="1" parent="1">
          <mxGeometry x="760" y="80" width="320" height="240" as="geometry" />
        </mxCell>
        <mxCell id="Iun9FfVoCLrFuCCZVWFo-34" value="" style="shape=table;startSize=0;container=1;collapsible=0;childLayout=tableLayout;" vertex="1" parent="1">
          <mxGeometry x="760" y="400" width="320" height="160" as="geometry" />
        </mxCell>
        <mxCell id="Iun9FfVoCLrFuCCZVWFo-35" value="" style="shape=tableRow;horizontal=0;startSize=0;swimlaneHead=0;swimlaneBody=0;strokeColor=inherit;top=0;left=0;bottom=0;right=0;collapsible=0;dropTarget=0;fillColor=none;points=[[0,0.5],[1,0.5]];portConstraint=eastwest;" vertex="1" parent="Iun9FfVoCLrFuCCZVWFo-34">
          <mxGeometry width="320" height="40" as="geometry" />
        </mxCell>
        <mxCell id="Iun9FfVoCLrFuCCZVWFo-36" value="&lt;font style=&quot;font-size: 16px;&quot;&gt;Deloppgave&lt;/font&gt;" style="shape=partialRectangle;html=1;whiteSpace=wrap;connectable=0;strokeColor=#d79b00;overflow=hidden;fillColor=#ffe6cc;top=0;left=0;bottom=0;right=0;pointerEvents=1;" vertex="1" parent="Iun9FfVoCLrFuCCZVWFo-35">
          <mxGeometry width="160" height="40" as="geometry">
            <mxRectangle width="160" height="40" as="alternateBounds" />
          </mxGeometry>
        </mxCell>
        <mxCell id="Iun9FfVoCLrFuCCZVWFo-37" value="&lt;font style=&quot;font-size: 16px;&quot;&gt;Tidsestiamt&lt;/font&gt;" style="shape=partialRectangle;html=1;whiteSpace=wrap;connectable=0;strokeColor=#d79b00;overflow=hidden;fillColor=#ffe6cc;top=0;left=0;bottom=0;right=0;pointerEvents=1;" vertex="1" parent="Iun9FfVoCLrFuCCZVWFo-35">
          <mxGeometry x="160" width="160" height="40" as="geometry">
            <mxRectangle width="160" height="40" as="alternateBounds" />
          </mxGeometry>
        </mxCell>
        <mxCell id="Iun9FfVoCLrFuCCZVWFo-38" value="" style="shape=tableRow;horizontal=0;startSize=0;swimlaneHead=0;swimlaneBody=0;strokeColor=inherit;top=0;left=0;bottom=0;right=0;collapsible=0;dropTarget=0;fillColor=none;points=[[0,0.5],[1,0.5]];portConstraint=eastwest;" vertex="1" parent="Iun9FfVoCLrFuCCZVWFo-34">
          <mxGeometry y="40" width="320" height="40" as="geometry" />
        </mxCell>
        <mxCell id="Iun9FfVoCLrFuCCZVWFo-39" value="Database" style="shape=partialRectangle;html=1;whiteSpace=wrap;connectable=0;strokeColor=inherit;overflow=hidden;fillColor=none;top=0;left=0;bottom=0;right=0;pointerEvents=1;" vertex="1" parent="Iun9FfVoCLrFuCCZVWFo-38">
          <mxGeometry width="160" height="40" as="geometry">
            <mxRectangle width="160" height="40" as="alternateBounds" />
          </mxGeometry>
        </mxCell>
        <mxCell id="Iun9FfVoCLrFuCCZVWFo-40" value="3 Dager" style="shape=partialRectangle;html=1;whiteSpace=wrap;connectable=0;strokeColor=inherit;overflow=hidden;fillColor=none;top=0;left=0;bottom=0;right=0;pointerEvents=1;" vertex="1" parent="Iun9FfVoCLrFuCCZVWFo-38">
          <mxGeometry x="160" width="160" height="40" as="geometry">
            <mxRectangle width="160" height="40" as="alternateBounds" />
          </mxGeometry>
        </mxCell>
        <mxCell id="Iun9FfVoCLrFuCCZVWFo-41" value="" style="shape=tableRow;horizontal=0;startSize=0;swimlaneHead=0;swimlaneBody=0;strokeColor=inherit;top=0;left=0;bottom=0;right=0;collapsible=0;dropTarget=0;fillColor=none;points=[[0,0.5],[1,0.5]];portConstraint=eastwest;" vertex="1" parent="Iun9FfVoCLrFuCCZVWFo-34">
          <mxGeometry y="80" width="320" height="40" as="geometry" />
        </mxCell>
        <mxCell id="Iun9FfVoCLrFuCCZVWFo-42" value="Integrering" style="shape=partialRectangle;html=1;whiteSpace=wrap;connectable=0;strokeColor=inherit;overflow=hidden;fillColor=none;top=0;left=0;bottom=0;right=0;pointerEvents=1;" vertex="1" parent="Iun9FfVoCLrFuCCZVWFo-41">
          <mxGeometry width="160" height="40" as="geometry">
            <mxRectangle width="160" height="40" as="alternateBounds" />
          </mxGeometry>
        </mxCell>
        <mxCell id="Iun9FfVoCLrFuCCZVWFo-43" value="3 dager" style="shape=partialRectangle;html=1;whiteSpace=wrap;connectable=0;strokeColor=inherit;overflow=hidden;fillColor=none;top=0;left=0;bottom=0;right=0;pointerEvents=1;" vertex="1" parent="Iun9FfVoCLrFuCCZVWFo-41">
          <mxGeometry x="160" width="160" height="40" as="geometry">
            <mxRectangle width="160" height="40" as="alternateBounds" />
          </mxGeometry>
        </mxCell>
        <mxCell id="Iun9FfVoCLrFuCCZVWFo-44" value="" style="shape=tableRow;horizontal=0;startSize=0;swimlaneHead=0;swimlaneBody=0;strokeColor=inherit;top=0;left=0;bottom=0;right=0;collapsible=0;dropTarget=0;fillColor=none;points=[[0,0.5],[1,0.5]];portConstraint=eastwest;" vertex="1" parent="Iun9FfVoCLrFuCCZVWFo-34">
          <mxGeometry y="120" width="320" height="40" as="geometry" />
        </mxCell>
        <mxCell id="Iun9FfVoCLrFuCCZVWFo-45" value="Interface" style="shape=partialRectangle;html=1;whiteSpace=wrap;connectable=0;strokeColor=inherit;overflow=hidden;fillColor=none;top=0;left=0;bottom=0;right=0;pointerEvents=1;" vertex="1" parent="Iun9FfVoCLrFuCCZVWFo-44">
          <mxGeometry width="160" height="40" as="geometry">
            <mxRectangle width="160" height="40" as="alternateBounds" />
          </mxGeometry>
        </mxCell>
        <mxCell id="Iun9FfVoCLrFuCCZVWFo-46" value="3 Dager" style="shape=partialRectangle;html=1;whiteSpace=wrap;connectable=0;strokeColor=inherit;overflow=hidden;fillColor=none;top=0;left=0;bottom=0;right=0;pointerEvents=1;" vertex="1" parent="Iun9FfVoCLrFuCCZVWFo-44">
          <mxGeometry x="160" width="160" height="40" as="geometry">
            <mxRectangle width="160" height="40" as="alternateBounds" />
          </mxGeometry>
        </mxCell>
        <mxCell id="Iun9FfVoCLrFuCCZVWFo-47" value="&lt;font style=&quot;font-size: 24px;&quot;&gt;&lt;u&gt;Skisse av interface&lt;/u&gt;&lt;/font&gt;" style="text;html=1;strokeColor=none;fillColor=none;align=center;verticalAlign=middle;whiteSpace=wrap;rounded=0;" vertex="1" parent="1">
          <mxGeometry x="265" y="30" width="280" height="50" as="geometry" />
        </mxCell>
      </root>
    </mxGraphModel>
  </diagram>
</mxfile>
